<svg xmlns="http://www.w3.org/2000/svg" viewBox="0 0 212.93 176.83"><title>Asset 1</title><g id="Layer_2" data-name="Layer 2"><g id="Layer_1-2" data-name="Layer 1"><path id="_Compound_Path_" data-name=" Compound Path " d="M76.54,176.83A158.41,158.41,0,0,1,3.66,157.35a7.63,7.63,0,0,1-3.22-9.08,7.53,7.53,0,0,1,8.24-5A63.79,63.79,0,0,0,53.24,134c-20-15-64.51-57.7-37.15-120.9a7.64,7.64,0,0,1,6.45-4.66A7.73,7.73,0,0,1,29.59,12a94.89,94.89,0,0,0,68,35.84A47.79,47.79,0,0,1,145.36,0h0a47.08,47.08,0,0,1,31.42,12c12.54-1.31,22.46-1.67,22.94-1.67a8.14,8.14,0,0,1,2.87,0,7.75,7.75,0,0,1,5.37,0,7.63,7.63,0,0,1,4.42,9.86l0,.05v0A95.38,95.38,0,0,1,194.24,51c2.39,22.1-3.1,54.6-38.47,91A107.52,107.52,0,0,1,76.54,176.83Z"/></g></g></svg>